<svg xmlns="http://www.w3.org/2000/svg" viewBox="0 0 200 200" width="200" height="200" role="img" aria-label="Ascend Airways Malaysia logo">
  <path fill="#86A5BA" d="M132.20,175.60 L132.20,176.60 L133.80,177.80 L135.20,177.80 L135.40,178.80 L137.00,178.40 L137.80,179.00 L139.00,179.00 L140.00,177.60 L140.00,176.60 L139.60,176.60 L138.80,178.60 L138.20,178.60 L137.40,177.60 L135.80,178.00 L135.60,177.40 L137.00,176.60 L137.40,175.60 L137.00,175.60 L136.40,176.60 L134.80,177.20 L133.80,177.20 L132.80,176.40 L133.20,174.80 Z M115.20,174.80 L115.20,175.20 L116.40,175.20 L117.40,177.20 L118.40,177.80 L120.20,177.80 L121.00,177.20 L121.00,176.80 L118.60,177.40 L117.40,176.60 L117.00,175.00 Z M107.80,170.20 L108.80,175.60 L109.60,176.00 L110.00,175.00 L109.40,175.00 L109.00,174.40 L108.20,170.20 Z M139.00,171.00 L137.80,169.20 L136.20,169.00 L135.60,169.20 L135.20,170.00 L137.40,169.80 L138.60,171.00 L138.00,172.00 L134.20,172.20 L134.20,171.00 L132.60,171.60 L132.20,171.20 L132.40,169.80 L131.80,170.20 L131.60,171.60 L133.00,172.00 L133.20,172.80 L138.40,172.60 Z M119.20,169.60 L119.00,170.20 L118.20,170.60 L118.20,171.60 L119.80,172.60 L123.00,173.40 L124.00,174.60 L124.00,175.80 L124.40,175.80 L124.40,174.20 L123.60,173.20 L118.80,171.40 L119.00,170.20 L120.80,169.60 L122.40,170.00 L122.40,169.60 L121.60,169.00 L120.40,169.00 Z M101.80,170.40 L100.40,169.20 L98.80,169.00 L97.60,169.80 L96.40,171.40 L95.40,171.60 L95.00,170.60 L94.60,170.60 L94.40,171.60 L95.60,172.00 L95.80,173.00 L100.80,172.80 L101.80,172.00 Z M101.20,170.60 L100.80,171.80 L96.80,172.20 L97.20,170.60 L98.40,170.00 L100.20,169.80 Z M85.80,170.60 L84.80,169.40 L82.60,169.00 L81.60,170.20 L82.60,169.80 L84.60,170.00 L85.20,170.60 L84.60,171.80 L81.20,172.20 L81.20,170.60 L80.20,171.40 L79.00,171.20 L79.20,169.80 L78.60,170.00 L78.40,171.20 L79.80,172.20 L79.80,173.00 L84.60,172.80 L85.60,172.20 Z M90.80,168.60 L90.40,168.60 L89.60,172.60 L88.80,174.40 L88.60,179.00 L90.40,179.00 L91.00,178.40 L91.00,177.80 L90.60,177.80 L90.20,178.60 L88.80,178.20 Z M74.20,168.20 L73.20,168.40 L72.60,169.40 L72.60,170.00 L73.40,170.20 L72.60,174.60 L71.80,176.60 L71.80,178.60 L73.00,179.20 L73.00,178.80 L72.20,178.20 L72.20,177.00 L72.80,175.80 Z M129.60,167.80 L128.20,167.80 L127.80,168.20 L125.80,174.80 L125.80,176.00 L126.20,176.00 L127.60,169.60 L128.60,168.20 L129.20,168.20 L129.60,168.60 L129.60,170.00 L128.00,176.80 L128.40,176.80 L130.00,170.80 L130.00,168.20 Z M114.60,168.00 L114.20,168.80 L115.20,169.00 L115.00,170.20 L115.80,170.40 L115.60,171.80 L116.00,173.00 L117.40,174.00 L121.20,175.00 L121.20,174.60 L118.00,173.80 L116.40,172.80 L116.20,170.80 L116.60,169.80 L115.80,169.60 L116.00,168.00 Z M105.40,167.80 L104.80,168.40 L104.80,169.60 L105.60,171.60 L105.80,174.40 L106.60,175.80 L107.00,179.60 L107.40,179.60 L107.40,177.60 L105.40,168.60 L105.80,168.20 L106.80,168.40 L107.60,169.80 L108.00,169.80 L108.00,169.00 L106.80,167.80 Z M103.20,168.60 L101.00,167.80 L101.00,168.20 L102.80,169.00 L103.80,170.60 L102.00,178.20 L101.00,178.60 L100.20,177.80 L99.00,177.60 L100.40,175.60 L97.60,177.20 L96.20,177.00 L95.60,176.40 L96.20,174.60 L95.80,174.60 L95.00,175.80 L95.00,176.60 L96.20,177.60 L98.20,177.80 L98.40,178.40 L97.80,178.80 L95.20,178.80 L95.20,179.20 L97.80,179.20 L99.20,178.40 L100.00,178.40 L100.60,179.00 L102.40,178.60 L104.20,172.20 L104.00,169.80 Z M86.20,168.00 L84.80,167.80 L84.80,168.20 L86.40,168.60 L87.40,169.80 L87.60,172.00 L87.00,173.20 L86.80,175.80 L86.00,178.40 L85.00,178.60 L84.40,177.80 L82.40,177.80 L82.40,177.40 L83.60,176.80 L84.80,175.40 L85.00,174.20 L84.20,173.60 L81.60,173.80 L81.60,174.20 L84.20,174.20 L84.40,175.00 L83.00,176.60 L80.60,177.20 L79.40,176.40 L79.40,175.80 L81.00,174.40 L81.00,174.00 L80.20,174.20 L79.00,175.40 L79.00,176.60 L80.60,177.80 L82.00,177.80 L82.20,178.40 L81.80,178.80 L79.00,178.80 L79.00,179.20 L81.80,179.20 L83.20,178.40 L84.40,179.00 L85.80,179.00 L85.80,178.60 L86.40,178.40 L88.00,172.60 L88.20,170.40 L87.80,169.40 Z M63.00,167.80 L62.00,171.60 L62.40,171.60 L62.80,170.00 L63.40,169.80 L65.00,176.20 L66.00,177.60 L67.00,177.60 L67.80,177.20 L67.80,176.80 L66.40,177.20 L65.80,176.60 L63.80,168.20 Z M77.00,163.80 L74.40,164.00 L73.80,165.20 L72.80,166.00 L72.80,166.40 L73.20,166.40 L73.80,165.40 L75.40,164.20 L77.00,165.00 L74.80,176.20 L73.60,179.00 L74.60,178.20 L75.20,174.80 L76.00,173.20 L76.00,171.80 L77.60,165.60 L77.60,164.20 Z M62.20,163.80 L60.80,167.20 L59.80,172.60 L60.20,172.60 L61.00,168.20 L62.20,164.60 L64.20,164.20 L65.00,165.00 L67.00,173.60 L68.00,173.60 L69.40,171.40 L69.00,171.40 L68.80,172.20 L68.00,172.80 L67.40,172.60 L65.20,164.20 L64.80,163.80 Z M129.20,163.00 L128.00,164.40 L128.00,165.20 L128.80,166.20 L130.20,166.20 L130.20,165.80 L129.20,165.80 L128.60,165.20 L128.80,163.80 L130.20,163.40 L131.00,164.00 L131.00,164.80 L131.40,164.80 L131.40,164.00 L130.60,163.00 Z M93.60,163.00 L92.40,163.00 L91.60,163.60 L90.80,167.20 L91.20,167.20 L91.80,164.40 L92.60,163.60 L93.40,163.60 L93.80,164.80 L94.20,164.80 L94.20,163.80 Z M136.80,154.80 L137.80,156.00 L140.40,156.60 L144.40,156.20 L145.80,155.60 L145.80,155.20 L143.20,156.00 L138.40,155.80 Z M119.40,155.80 L118.20,155.80 L117.80,154.40 L117.00,154.20 L115.40,155.40 L114.00,155.80 L114.00,156.20 L116.20,155.20 L116.80,155.20 L118.00,156.20 L119.40,156.20 Z M132.00,151.80 L131.40,152.00 L128.40,157.00 L128.80,157.00 Z M137.00,150.60 L137.00,151.00 L138.80,151.40 L139.00,153.40 L140.60,154.60 L142.00,154.80 L144.40,154.00 L144.40,153.60 L141.00,154.20 L139.60,153.60 L138.80,150.80 Z M124.80,150.20 L125.80,154.20 L125.80,157.40 L126.20,157.40 L126.60,155.60 L125.80,151.60 L125.20,150.20 Z M51.20,150.60 L51.20,151.00 L59.20,150.80 L59.80,151.40 L60.40,154.80 L60.80,154.80 L60.60,151.60 L59.80,150.20 L52.40,150.00 Z M116.20,149.00 L113.60,149.00 L111.40,150.00 L110.00,152.00 L110.20,153.20 L111.00,154.00 L112.60,154.60 L115.20,154.00 L115.20,153.60 L113.60,154.00 L111.60,153.80 L110.80,153.00 L110.80,151.80 L111.60,150.40 L114.00,149.40 L116.20,149.40 Z M78.80,146.00 L77.80,146.80 L75.80,155.40 L76.20,155.40 L77.00,153.00 L77.20,150.40 Z M96.20,145.20 L95.40,147.00 L96.20,146.40 L96.80,146.60 L97.80,155.60 L98.60,156.20 L101.00,156.20 L102.00,155.40 L103.40,152.20 L103.00,152.20 L101.80,154.80 L100.80,155.80 L98.60,155.60 L98.20,155.00 L97.20,146.00 L96.80,145.20 Z M140.60,144.60 L140.40,145.80 L141.00,146.80 L144.40,147.80 L144.40,147.40 L141.60,146.60 L141.00,146.00 L141.20,144.40 Z M99.80,144.00 L100.40,151.40 L100.80,152.20 L101.40,152.20 L102.60,149.60 L101.80,150.20 L101.00,150.00 L100.20,144.00 Z M119.00,143.80 L118.60,143.80 L118.80,146.40 L118.20,147.20 L113.40,147.00 L110.40,147.80 L109.80,148.80 L113.40,147.60 L118.60,147.60 L119.40,146.00 Z M117.60,142.80 L115.40,142.80 L114.00,143.40 L112.80,144.40 L112.40,145.40 L111.40,146.00 L110.40,146.00 L109.80,145.00 L109.40,145.00 L109.40,146.00 L112.00,146.40 L113.00,145.60 L113.60,144.20 L115.40,143.20 L117.60,143.20 Z M136.40,141.20 L135.60,142.40 L136.80,141.60 L137.60,142.00 L137.60,142.80 L136.20,145.00 L136.60,145.00 L136.80,144.40 L137.60,144.60 L137.20,146.80 L137.80,148.20 L140.40,149.80 L142.60,150.00 L142.60,149.60 L139.40,148.80 L138.40,148.00 L137.80,147.00 L137.80,145.60 L139.00,143.00 L138.20,142.80 L138.20,142.00 L137.60,141.20 Z M123.20,141.20 L122.80,142.80 L123.40,143.60 L124.60,149.60 L125.00,149.60 L123.60,142.20 L125.40,141.60 L126.60,142.80 L128.40,152.20 L129.60,152.40 L129.80,151.40 L128.80,151.20 L128.20,149.40 L128.20,147.60 L126.60,141.60 L125.00,141.00 Z M88.20,141.00 L86.40,141.20 L85.80,142.40 L86.80,155.60 L87.20,155.60 L86.40,142.20 L86.80,141.80 L88.20,141.60 L89.00,142.40 L89.60,151.20 L90.00,152.20 L91.00,151.60 L92.40,148.60 L92.00,148.60 L91.00,150.40 L90.20,150.40 L89.80,143.60 L89.00,141.40 Z M72.00,141.20 L70.40,141.00 L69.00,142.40 L67.80,148.60 L68.20,148.60 L69.00,144.40 L69.80,142.20 L70.60,141.60 L71.40,141.60 L72.20,142.80 L69.40,155.00 L68.60,155.80 L67.20,155.80 L66.80,155.40 L66.80,154.20 L66.40,154.20 L66.20,155.40 L66.60,156.00 L68.80,156.20 L69.60,155.80 L70.00,155.00 L70.20,152.60 L71.00,151.20 L71.20,148.40 L72.00,146.60 L72.20,143.80 L72.80,142.60 L72.60,141.60 Z M139.40,142.80 L142.60,141.40 L145.60,141.20 L147.60,141.80 L147.60,141.40 L146.40,140.80 L142.60,140.80 L139.80,142.00 Z M111.80,142.00 L110.60,143.40 L113.40,141.80 L117.60,141.20 L120.60,142.20 L121.80,143.60 L122.00,146.20 L120.00,153.80 L120.00,154.80 L120.40,154.80 L122.60,145.80 L122.00,143.00 L120.80,141.80 L118.40,140.80 L115.20,140.80 Z M84.80,141.00 L82.20,140.80 L79.60,142.20 L78.00,141.00 L76.00,141.40 L75.40,144.20 L74.80,145.00 L74.60,147.80 L73.80,149.40 L73.40,153.00 L72.80,154.00 L73.00,156.00 L75.40,156.20 L75.40,155.80 L73.60,155.80 L73.20,154.60 L73.80,153.40 L74.20,150.20 L74.80,149.20 L76.00,142.40 L76.60,141.80 L77.80,141.80 L78.60,143.00 L79.40,143.00 L80.60,142.00 L83.80,141.20 L84.60,141.80 L84.20,143.20 L80.20,144.00 L79.60,144.60 L79.60,145.00 L80.00,145.00 L80.80,144.20 L84.40,143.80 L85.00,143.20 Z M58.80,139.00 L58.20,139.00 L57.20,140.60 L58.60,140.60 L59.40,147.40 L59.00,147.80 L53.60,147.60 L53.60,146.80 L56.20,143.00 L56.20,142.60 L55.80,142.60 L53.60,146.60 L53.00,147.00 L53.00,148.40 L59.20,148.60 L59.80,148.20 L59.80,145.60 Z M61.80,138.40 L64.00,155.40 L63.60,155.80 L61.20,155.80 L61.00,155.20 L60.60,155.20 L60.60,155.60 L61.00,155.60 L61.20,156.20 L63.80,156.20 L64.60,155.40 L64.00,149.40 L63.20,146.80 L62.80,141.20 L62.20,138.40 Z M72.80,134.40 L71.00,134.80 L70.00,136.20 L70.20,137.80 L71.60,138.80 L73.40,138.20 L74.40,136.20 L74.00,136.20 L73.80,137.00 L72.20,138.20 L70.60,137.40 L71.00,135.40 L72.80,134.80 Z M73.80,129.00 L74.40,130.00 L77.20,131.20 L80.60,131.80 L85.00,131.40 L85.00,131.00 L80.60,131.20 L77.40,130.80 Z M122.00,127.20 L121.60,127.20 L121.20,129.80 L120.20,130.80 L103.00,130.60 L99.60,130.80 L99.60,131.20 L120.40,131.20 L121.40,130.60 L122.00,129.40 Z M185.40,126.80 L179.80,129.80 L173.80,130.80 L161.40,130.80 L160.80,130.20 L161.00,128.00 L160.60,128.00 L160.20,130.60 L161.20,131.20 L177.60,131.00 L183.20,128.80 L185.20,127.40 Z M110.00,126.60 L110.00,127.00 L119.00,127.00 L119.00,126.60 Z M57.00,126.00 L53.80,127.00 L49.40,126.60 L49.40,127.00 L51.20,127.60 L54.20,127.60 L56.60,126.80 Z M64.80,125.80 L60.20,129.40 L56.20,130.80 L48.00,131.00 L45.60,130.00 L44.20,129.80 L44.20,130.20 L46.00,131.00 L50.20,131.80 L53.00,131.80 L57.60,131.00 L61.80,129.00 L64.20,127.00 Z M14.00,125.60 L13.60,125.60 L10.40,130.60 L7.80,130.80 L7.80,131.20 L10.80,131.00 Z M167.80,126.40 L168.40,127.00 L176.00,126.80 L180.00,124.80 L181.80,122.80 L177.80,125.60 L174.00,126.60 L168.60,126.60 L168.20,126.20 L169.00,124.00 L169.00,122.80 L168.60,122.80 Z M69.80,122.00 L69.80,123.40 L70.80,126.00 L71.80,127.60 L73.00,128.40 L71.00,125.40 L70.20,122.00 Z M98.00,121.20 L97.60,121.20 L95.60,125.20 L94.80,125.60 L93.80,127.20 L96.20,125.00 Z M142.80,121.00 L145.80,130.40 L147.00,131.00 L147.00,130.60 L146.20,130.20 L143.80,122.20 L143.20,121.00 Z M18.00,121.00 L17.80,122.00 L18.20,122.60 L29.00,122.80 L29.60,123.40 L29.80,128.20 L30.40,130.60 L31.00,130.80 L29.60,122.20 L19.40,122.20 L18.60,121.80 L19.20,120.40 Z M45.80,119.40 L45.80,119.80 L47.00,120.00 L47.40,120.60 L47.00,123.40 L47.80,125.40 L48.20,125.40 L47.80,123.80 L48.00,120.40 L47.40,119.60 Z M45.40,119.60 L41.80,119.40 L40.80,120.00 L40.40,122.60 L40.60,125.20 L41.00,125.20 L41.20,120.40 L41.60,120.00 L45.40,120.00 Z M98.20,119.80 L97.60,119.00 L92.20,119.00 L91.20,119.40 L88.60,124.40 L88.00,124.60 L87.40,125.60 L84.60,126.80 L80.20,126.60 L78.80,125.80 L77.40,122.80 L77.00,122.80 L77.00,123.60 L78.00,125.40 L78.80,125.80 L79.40,126.80 L81.40,127.40 L84.00,127.40 L86.20,126.80 L87.40,126.00 L87.40,125.60 L89.60,123.80 L91.60,119.80 L97.40,119.60 L97.80,120.80 L98.20,120.80 Z M13.60,118.60 L12.80,119.00 L7.00,129.40 L7.40,129.40 Z M58.00,118.20 L59.60,120.40 L59.60,122.60 L58.80,124.20 L59.20,124.20 L59.80,123.40 L60.20,120.80 L59.60,119.20 Z M101.80,117.40 L101.40,117.40 L100.60,121.20 L99.80,123.00 L99.60,125.80 L100.00,125.80 Z M112.60,115.80 L112.80,116.40 L116.60,116.60 L122.60,116.20 L122.60,115.80 Z M65.80,115.40 L66.80,117.40 L66.80,121.20 L65.80,123.40 L65.80,124.00 L66.20,124.00 L67.00,122.40 L67.40,118.00 L67.00,116.60 L66.20,115.40 Z M47.20,114.40 L47.40,115.00 L49.60,116.20 L57.60,118.20 L57.60,117.80 L52.80,116.60 Z M111.60,113.60 L111.60,114.00 L112.20,114.00 L113.20,113.00 L115.00,112.40 L122.60,112.40 L123.20,113.00 L123.00,114.60 L123.40,114.60 L123.80,112.40 L123.00,111.80 L114.80,111.80 L112.80,112.60 Z M35.20,107.60 L34.80,107.60 L35.00,111.80 L35.80,115.40 L37.60,130.40 L37.00,130.80 L32.40,130.60 L31.40,130.80 L31.40,131.20 L37.20,131.20 L38.00,130.60 L38.00,128.20 L37.20,124.80 L37.00,120.20 L36.20,117.20 Z M137.60,104.60 L136.80,105.20 L136.00,108.00 L135.80,110.60 L135.00,112.80 L134.80,115.20 L134.00,117.40 L131.40,130.00 L130.80,130.60 L126.00,130.80 L125.20,130.20 L125.20,129.40 L126.00,127.40 L126.00,125.80 L126.80,124.00 L127.00,121.60 L130.00,108.80 L129.60,108.80 L127.80,115.60 L127.60,118.20 L125.80,124.20 L125.60,126.80 L124.80,128.60 L124.80,130.60 L125.20,131.00 L130.80,131.20 L132.00,130.20 L132.20,127.80 L134.00,121.40 L134.20,119.00 L135.20,115.80 L135.20,114.00 L135.80,112.80 L137.20,106.00 L137.80,106.20 L137.80,107.20 L140.40,113.80 L141.80,118.80 L142.60,120.60 L143.00,120.60 Z M76.20,103.20 L74.60,104.60 L73.60,106.60 L72.80,107.20 L70.80,111.60 L69.80,115.60 L69.60,121.60 L70.00,121.60 L70.00,117.60 L71.20,112.20 L73.00,107.80 Z M27.60,103.20 L27.00,103.20 L25.80,104.60 L16.80,120.60 L17.20,120.60 L19.00,117.80 L20.40,114.60 L21.00,114.20 L26.60,104.80 L27.20,105.00 L27.60,106.20 L27.80,111.20 L28.60,114.20 L28.60,117.80 L28.20,118.20 L23.40,118.00 L20.60,118.80 L19.80,120.00 L21.40,119.00 L28.40,118.80 L29.20,118.20 Z M100.00,102.00 L99.60,102.00 L100.60,104.60 L100.60,108.00 L99.60,109.20 L94.40,109.20 L94.00,108.80 L93.80,104.80 L93.00,103.60 L92.60,103.60 L93.60,106.40 L93.40,109.00 L93.80,109.80 L97.60,110.00 L99.80,109.80 L100.80,109.20 L101.20,105.60 Z M183.40,103.00 L179.60,101.80 L174.60,101.80 L173.20,102.40 L168.80,122.40 L169.20,122.40 L170.00,119.60 L171.20,112.80 L172.00,111.00 L172.20,108.40 L173.00,106.60 L173.20,104.20 L173.80,103.00 L174.80,102.20 L178.40,102.20 L182.00,103.00 L184.40,104.60 L185.60,106.80 L185.80,113.00 L184.80,115.60 L184.60,117.40 L182.80,120.60 L182.80,121.20 L183.20,121.20 L185.80,115.40 L186.60,110.60 L186.00,106.20 L184.80,104.20 Z M161.00,101.60 L160.60,101.60 L160.00,103.60 L159.80,105.80 L154.00,130.00 L153.20,130.80 L147.60,130.80 L147.60,131.20 L153.60,131.20 L155.00,129.20 L156.20,122.40 L159.00,111.60 L159.20,109.20 L161.00,103.20 Z M91.40,102.00 L89.60,101.40 L86.00,101.80 L83.60,103.00 L81.20,105.40 L78.00,111.20 L77.00,114.80 L76.60,119.00 L76.80,122.40 L77.20,122.40 L77.20,116.40 L78.20,112.20 L81.40,106.00 L84.20,103.20 L86.00,102.20 L89.40,102.00 L92.40,103.20 Z M52.40,104.20 L51.20,107.00 L51.20,107.80 L52.40,109.80 L54.20,110.80 L59.20,112.00 L64.20,114.00 L64.20,113.60 L61.00,112.00 L55.00,110.60 L52.80,109.40 L52.00,108.20 L52.20,105.40 L53.60,103.40 L55.60,102.20 L61.20,102.20 L61.20,101.80 L59.60,101.20 L57.20,101.20 L54.60,102.20 Z M188.80,99.80 L188.80,100.20 L190.60,101.60 L192.80,105.80 L192.80,113.20 L191.80,117.00 L190.20,120.80 L190.60,120.80 L192.00,118.00 L193.00,114.60 L193.40,108.00 L193.00,104.80 L192.00,102.80 L190.20,100.60 Z M128.20,99.60 L127.80,99.60 L127.40,101.20 L126.60,101.80 L111.80,102.00 L111.00,103.80 L110.80,106.20 L110.00,108.20 L108.80,114.80 L106.00,125.40 L106.00,126.60 L106.40,127.00 L107.20,127.00 L107.20,126.60 L106.60,126.40 L107.20,122.40 L107.80,121.20 L108.40,117.40 L109.00,116.40 L109.20,114.00 L112.00,102.60 L112.40,102.20 L127.00,102.20 L128.00,101.40 Z M66.60,99.00 L66.60,99.40 L68.80,101.40 L69.60,103.00 L69.60,106.40 L68.40,107.60 L64.00,107.60 L63.40,107.20 L63.00,103.60 L61.60,102.40 L62.60,103.80 L62.80,107.20 L63.60,108.00 L68.80,108.00 L69.80,107.40 L70.20,105.20 L70.00,102.40 L68.20,99.80 Z M25.20,98.80 L24.80,98.80 L22.60,102.20 L19.60,108.20 L16.60,112.40 L13.60,118.20 L14.00,118.20 L19.60,108.40 L23.60,102.20 Z M188.20,99.40 L184.60,98.00 L181.40,97.60 L168.20,97.80 L166.80,100.40 L166.60,103.40 L165.80,105.20 L165.60,107.60 L164.80,109.20 L161.80,123.60 L162.20,123.60 L162.80,121.80 L165.00,110.60 L168.20,98.20 L182.00,98.20 L186.40,99.00 L187.60,99.80 L188.20,99.80 Z M132.20,98.00 L130.80,102.40 L129.80,108.40 L130.20,108.40 L132.40,98.80 L133.20,98.20 L139.40,98.20 L140.60,99.80 L148.20,122.80 L149.00,124.00 L149.60,124.00 L155.00,98.80 L155.60,98.20 L160.20,98.00 L161.20,98.60 L161.00,100.40 L161.40,100.40 L161.80,98.20 L160.20,97.60 L155.20,97.80 L154.80,98.20 L151.80,110.60 L151.60,113.20 L150.60,116.40 L150.60,118.20 L149.80,119.40 L149.60,122.20 L148.80,122.40 L140.60,98.40 L139.60,97.60 L133.20,97.60 Z M128.40,98.20 L127.40,97.60 L106.20,97.80 L104.80,101.40 L104.60,104.00 L103.60,106.60 L101.80,116.00 L102.20,116.00 L105.00,103.00 L105.80,101.00 L106.00,99.00 L106.60,98.20 L125.20,98.00 L127.40,98.20 L128.00,99.00 L128.40,99.00 Z M27.20,97.80 L27.20,98.20 L33.00,98.20 L33.60,98.80 L34.00,104.00 L34.60,107.20 L35.00,107.20 L35.00,104.40 L34.20,101.60 L34.00,98.20 L33.60,97.80 L31.80,97.60 Z M79.60,100.00 L79.60,100.40 L82.40,99.00 L85.60,98.00 L91.20,97.80 L93.20,98.00 L96.00,99.00 L99.20,101.40 L99.20,101.00 L96.60,98.80 L94.40,97.80 L91.40,97.40 L85.20,97.60 L82.00,98.60 Z M66.20,98.60 L64.40,97.80 L60.80,97.20 L54.60,97.60 L49.80,99.80 L46.60,102.80 L44.80,105.60 L44.20,108.40 L44.80,112.40 L45.40,112.60 L44.80,110.60 L45.20,106.20 L47.40,102.40 L50.20,100.20 L52.40,99.00 L55.60,98.00 L60.80,97.80 L63.20,98.00 L66.20,99.00 Z M59.00,82.00 L59.40,82.80 L83.20,82.40 L122.80,82.80 L127.20,82.40 L127.20,81.00 L126.40,80.80 L126.60,81.80 L126.00,82.20 L60.80,82.00 L60.60,81.40 L61.00,80.80 L59.80,81.00 Z M95.80,74.60 L95.80,75.00 L102.20,74.40 L108.40,74.40 L113.20,75.00 L119.20,77.00 L119.20,76.60 L117.80,75.80 L109.00,73.80 L101.60,73.80 Z M75.40,72.00 L70.40,75.80 L66.40,78.00 L66.00,78.80 L71.40,75.60 L75.00,72.80 Z M84.00,72.40 L83.00,72.80 L82.40,73.60 L81.00,74.00 L80.80,73.40 L82.60,72.00 L82.60,71.60 L82.20,71.60 L81.40,72.60 L80.60,72.80 L75.60,76.60 L72.40,78.00 L71.60,78.80 L70.00,79.20 L69.80,79.80 L71.60,79.80 L76.60,77.60 L83.00,73.60 Z M114.40,69.80 L114.80,70.60 L118.00,71.00 L127.00,74.20 L134.20,78.00 L140.60,82.20 L150.00,82.40 L154.60,82.00 L154.60,81.40 L150.20,80.00 L147.40,78.60 L144.40,76.40 L142.20,73.80 L140.40,69.00 L139.20,68.20 L116.40,69.20 Z M95.00,64.40 L90.80,67.00 L90.60,67.60 L89.60,67.80 L87.20,70.00 L84.60,71.60 L84.40,72.20 L95.00,64.80 Z M93.40,61.60 L93.00,61.60 L88.40,66.60 L87.80,66.60 L84.00,70.00 L84.00,70.40 L85.40,69.80 Z M144.20,56.40 L143.80,56.40 L141.40,62.00 L140.20,63.60 L127.40,64.00 L119.80,65.00 L117.20,65.80 L114.60,66.00 L112.80,66.80 L111.20,66.80 L97.60,71.00 L87.60,75.00 L84.40,76.80 L83.40,76.80 L82.80,77.60 L84.80,77.80 L90.20,76.00 L95.40,75.20 L95.40,74.80 L93.40,74.80 L90.60,75.60 L89.80,75.40 L90.00,74.80 L98.40,71.20 L108.20,68.20 L110.20,68.00 L111.80,67.20 L122.20,65.20 L130.40,64.20 L140.60,64.00 L142.00,62.00 Z M103.40,51.80 L103.00,51.80 L98.40,56.80 L102.00,53.80 Z M132.80,44.80 L126.20,46.80 L121.40,48.80 L120.40,49.60 L119.20,49.80 L111.20,53.80 L110.60,54.60 L107.80,55.80 L107.40,56.60 L117.80,51.00 L127.20,47.00 L132.80,45.20 Z M140.60,42.80 L135.20,43.80 L133.20,44.60 L133.20,45.00 L136.40,44.00 L138.60,43.80 L140.60,43.20 Z M147.60,41.80 L144.80,41.80 L141.20,42.60 L141.20,43.00 L147.60,42.20 Z M115.20,40.80 L112.00,43.20 L106.20,49.20 L111.00,45.20 Z M122.20,34.80 L116.80,39.00 L116.40,39.80 L121.20,36.20 Z M117.40,31.60 L113.20,34.80 L111.40,37.00 L117.20,32.20 Z M134.20,20.80 L124.60,25.80 L122.60,27.60 L120.40,28.80 L119.80,29.80 L128.60,24.00 L133.40,21.80 Z M143.80,17.80 L138.80,18.80 L134.60,20.60 L134.60,21.00 L140.20,19.00 L143.80,18.20 Z M150.80,16.80 L148.00,16.80 L144.20,17.60 L144.20,18.00 L150.80,17.20 Z M167.40,17.00 L151.60,16.60 L151.60,17.00 L159.20,17.20 L159.40,17.80 L154.20,18.20 L149.40,19.20 L144.20,21.00 L137.80,24.00 L132.40,27.20 L124.40,32.80 L123.60,34.00 L133.00,27.60 L133.60,27.80 L133.20,28.60 L132.00,29.00 L131.20,30.00 L127.60,32.40 L117.80,40.60 L110.20,47.60 L106.80,51.60 L110.20,50.00 L114.40,47.00 L118.80,45.00 L119.80,44.00 L127.60,40.00 L133.80,37.80 L135.00,37.00 L148.60,33.20 L158.80,31.80 L167.40,18.00 Z"/>
  <path fill="#0B235F" fill-rule="evenodd" d="M129.20,168.40 L128.60,168.40 L127.80,169.60 L126.20,176.20 L126.20,178.40 L127.20,178.40 L127.60,177.80 L129.40,170.00 Z M115.00,169.00 L114.20,169.20 L110.20,175.60 L109.00,176.20 L107.40,169.40 L106.40,168.40 L105.60,168.60 L107.80,179.40 L105.80,182.00 L106.00,182.60 L106.60,182.60 L114.60,170.20 Z M139.40,168.80 L138.00,168.20 L136.40,168.20 L133.80,169.00 L132.40,170.40 L132.40,171.20 L133.20,171.40 L134.00,170.20 L135.60,169.00 L137.40,168.80 L138.80,170.00 L139.20,171.60 L138.40,172.80 L133.60,173.00 L131.80,173.80 L130.40,175.60 L130.40,177.20 L131.60,178.40 L133.80,178.80 L135.20,178.40 L135.20,178.00 L133.00,177.60 L132.00,176.60 L132.00,175.60 L133.40,174.00 L136.20,173.40 L138.00,173.80 L138.20,175.20 L135.80,177.80 L137.40,177.40 L138.20,178.40 L139.00,178.20 L140.60,172.00 L140.60,170.20 Z M124.00,169.00 L122.20,168.20 L120.40,168.20 L117.40,169.40 L116.40,170.80 L116.40,172.40 L118.00,173.60 L120.40,174.00 L122.00,175.00 L122.20,176.20 L120.20,178.00 L118.40,178.00 L117.20,177.20 L116.40,175.40 L115.40,175.40 L115.20,177.20 L117.20,178.60 L120.60,178.60 L122.20,177.80 L123.80,176.00 L123.60,174.20 L122.20,173.20 L120.40,173.00 L118.60,172.20 L118.00,171.60 L118.00,170.60 L119.80,169.00 L121.60,168.80 L123.60,171.00 L124.40,171.00 L124.80,170.00 Z M102.80,169.20 L100.80,168.20 L99.40,168.20 L96.00,169.40 L95.20,170.40 L95.40,171.40 L96.40,171.20 L96.60,170.60 L98.80,168.80 L100.40,169.00 L102.00,170.40 L102.00,172.00 L100.80,173.00 L96.40,173.00 L95.20,173.40 L93.40,175.40 L93.20,177.20 L94.60,178.60 L98.20,178.40 L98.20,178.00 L96.80,178.00 L94.80,176.60 L94.80,175.80 L96.60,173.80 L100.20,173.40 L101.20,174.20 L101.20,175.00 L99.20,177.60 L100.20,177.60 L101.00,178.40 L101.60,178.40 L102.40,176.80 L102.60,174.40 L103.60,171.20 Z M86.20,168.80 L84.60,168.20 L83.00,168.20 L80.20,169.20 L79.40,170.00 L79.20,171.20 L80.20,171.20 L82.60,168.80 L84.00,168.80 L85.80,170.20 L85.80,172.20 L84.60,173.00 L80.60,173.00 L79.20,173.40 L77.60,174.80 L77.20,177.40 L78.80,178.60 L81.80,178.60 L82.00,178.00 L80.60,178.00 L79.00,177.00 L78.80,175.40 L80.60,173.80 L84.20,173.40 L85.20,174.20 L85.20,175.00 L82.60,177.80 L84.40,177.60 L85.00,178.40 L85.60,178.40 L87.40,172.00 L87.40,170.20 Z M62.40,164.60 L61.20,168.20 L59.20,178.40 L60.00,178.40 L60.40,177.80 L62.20,169.00 L62.80,167.80 L63.60,167.60 L65.40,175.00 L66.40,177.00 L67.60,176.40 L73.00,168.40 L73.60,168.00 L74.40,168.20 L74.00,171.40 L72.40,177.00 L72.40,178.20 L73.40,178.60 L74.60,176.20 L76.80,165.00 L76.00,164.40 L74.80,164.60 L69.00,172.80 L67.20,174.00 L66.60,173.00 L66.60,171.40 L64.80,165.00 L64.20,164.40 Z M93.40,163.80 L92.60,163.80 L92.00,164.40 L89.20,176.00 L89.20,178.40 L90.20,178.40 L90.60,177.60 L91.80,171.00 L92.60,169.20 L92.60,167.60 L93.60,165.00 Z M129.60,163.60 L129.00,164.00 L128.80,165.20 L130.20,165.60 L130.80,164.20 Z M137.20,141.80 L136.40,142.00 L129.60,152.60 L128.20,152.20 L126.20,142.40 L125.40,141.80 L123.80,142.20 L125.20,150.00 L126.00,151.60 L126.80,156.60 L124.00,161.40 L125.40,161.20 L137.40,142.80 Z M87.40,155.40 L89.80,155.60 L90.40,155.20 L95.80,145.40 L96.80,145.00 L97.40,146.00 L98.00,149.60 L98.40,155.00 L99.00,155.60 L100.80,155.60 L101.60,154.80 L107.40,144.00 L108.00,142.20 L107.20,142.00 L106.40,143.00 L101.40,152.40 L100.80,152.40 L100.20,151.40 L99.40,142.40 L98.20,141.80 L96.20,142.60 L91.20,151.60 L90.00,152.40 L89.40,151.20 L88.80,142.40 L88.20,141.80 L86.80,142.00 Z M71.40,141.80 L70.20,142.00 L69.60,143.00 L67.00,154.00 L67.20,155.60 L68.60,155.60 L69.20,155.00 L72.00,142.80 Z M148.40,142.20 L145.60,141.40 L142.60,141.60 L140.40,142.40 L138.60,144.00 L138.00,145.60 L138.00,147.00 L138.60,148.00 L140.00,148.80 L144.40,149.80 L146.00,151.20 L146.20,152.00 L144.40,154.20 L141.20,155.00 L138.80,153.40 L138.60,151.40 L136.80,151.20 L136.20,151.60 L136.20,153.40 L137.00,154.60 L138.40,155.60 L143.20,155.80 L145.00,155.40 L147.80,153.20 L148.40,151.80 L148.00,149.60 L146.20,148.40 L142.80,147.80 L141.00,147.00 L140.20,145.80 L140.20,145.00 L142.40,142.80 L145.40,142.60 L147.20,144.00 L147.40,145.40 L149.20,145.60 L149.60,145.20 L149.60,143.40 Z M120.60,142.40 L117.60,141.40 L116.20,141.40 L112.80,142.20 L110.20,144.40 L110.00,145.40 L111.40,145.80 L112.20,145.40 L112.60,144.40 L114.00,143.20 L115.40,142.60 L117.60,142.60 L119.20,143.80 L119.60,146.00 L118.60,147.80 L113.40,147.80 L110.80,148.40 L109.40,149.20 L108.40,150.20 L107.40,152.80 L108.00,154.60 L108.80,155.40 L109.80,155.80 L113.80,155.80 L117.00,154.00 L118.00,154.40 L118.20,155.60 L119.60,155.40 L121.80,146.20 L121.60,143.60 Z M118.80,149.40 L118.00,151.80 L116.20,153.60 L114.20,154.60 L112.60,154.80 L111.40,154.40 L109.80,152.80 L110.60,150.60 L113.00,149.00 L118.00,148.80 Z M84.20,141.60 L83.00,141.40 L80.60,142.20 L79.40,143.20 L78.60,143.20 L77.80,142.00 L76.60,142.00 L76.20,142.40 L75.00,149.20 L74.40,150.20 L74.00,153.40 L73.40,154.60 L73.60,155.60 L75.60,155.40 L77.80,146.40 L80.20,143.80 L84.20,143.00 Z M61.00,136.40 L58.40,136.20 L57.20,137.20 L46.40,155.00 L46.40,155.60 L47.60,155.60 L50.60,151.00 L52.40,149.80 L59.80,150.00 L60.80,151.60 L61.20,155.40 L63.80,155.40 L62.60,145.00 L61.80,141.80 L61.60,137.60 Z M58.80,138.80 L59.20,139.40 L59.40,143.40 L60.00,145.60 L60.00,148.20 L59.20,148.80 L53.00,148.60 L52.60,148.00 L52.80,147.00 L57.00,140.20 L58.20,138.80 Z M73.40,135.20 L71.60,135.20 L70.80,136.40 L70.80,137.40 L71.60,138.00 L73.00,137.60 L73.80,136.40 Z M111.00,115.60 L122.40,115.60 L123.00,113.00 L122.60,112.60 L115.00,112.60 L113.20,113.20 Z M168.40,98.40 L165.20,110.60 L165.00,113.00 L164.20,115.00 L162.00,126.00 L161.20,127.80 L161.00,130.20 L161.40,130.60 L173.80,130.60 L179.80,129.60 L182.20,128.60 L186.20,125.80 L188.60,123.20 L190.40,120.00 L192.60,113.20 L192.60,105.80 L190.60,102.00 L188.60,100.20 L186.40,99.20 L182.00,98.40 Z M183.40,102.80 L185.80,105.40 L186.80,109.40 L186.00,115.40 L184.00,120.40 L181.20,124.00 L178.00,126.20 L174.60,127.20 L168.00,127.00 L167.60,126.40 L167.80,124.60 L168.60,122.60 L173.00,102.40 L174.60,101.60 L179.60,101.60 Z M161.00,98.60 L159.80,98.20 L155.60,98.40 L155.20,98.80 L151.20,118.20 L150.20,121.20 L150.20,123.20 L149.60,124.20 L149.00,124.20 L148.00,122.80 L140.00,99.00 L139.40,98.40 L132.80,98.60 L132.20,99.80 L132.00,102.00 L125.40,130.20 L126.00,130.60 L130.80,130.40 L131.20,130.00 L133.80,117.40 L134.60,115.20 L134.80,112.80 L135.60,110.60 L135.80,108.00 L136.60,105.20 L137.60,104.40 L139.00,107.40 L139.20,109.00 L144.00,122.20 L146.40,130.20 L147.20,130.60 L153.60,130.40 L154.60,127.60 L154.60,126.20 L156.60,119.00 L156.80,116.60 L158.60,110.20 Z M106.60,98.40 L105.20,103.00 L104.00,109.80 L103.40,111.00 L100.00,127.00 L99.20,129.00 L99.20,130.40 L120.20,130.60 L120.80,130.20 L121.40,128.60 L121.20,127.20 L106.40,127.20 L105.80,126.60 L107.60,117.60 L108.60,114.80 L108.80,112.40 L110.60,106.20 L110.80,103.80 L111.60,102.00 L112.20,101.60 L126.60,101.60 L127.40,100.80 L127.80,98.80 L127.40,98.40 L125.20,98.20 Z M33.00,98.40 L26.40,98.20 L25.40,99.00 L7.20,129.80 L7.40,130.60 L10.60,130.20 L19.60,115.40 L25.60,104.60 L27.00,103.00 L28.00,103.40 L29.40,118.20 L28.40,119.00 L21.40,119.20 L19.00,121.00 L18.80,121.80 L29.20,121.80 L30.20,123.00 L31.00,130.20 L31.40,130.60 L37.40,130.40 L35.60,115.40 L34.80,111.80 L34.60,107.40 L33.80,104.00 L33.60,99.80 Z M96.00,99.20 L93.20,98.20 L91.20,98.00 L85.60,98.20 L82.40,99.20 L77.40,102.40 L75.00,105.20 L72.20,110.00 L70.20,117.60 L70.20,121.80 L71.20,125.40 L74.40,129.20 L78.40,130.80 L85.20,130.80 L89.80,129.40 L93.20,127.20 L95.40,125.00 L97.60,121.00 L97.40,119.80 L92.00,119.80 L91.20,120.40 L91.00,121.80 L89.80,123.80 L87.40,126.20 L86.20,127.00 L84.00,127.60 L80.60,127.40 L79.40,127.00 L77.80,125.40 L76.80,123.60 L76.40,119.00 L76.80,114.80 L78.80,109.00 L81.80,104.40 L85.40,101.80 L87.60,101.20 L89.60,101.20 L91.40,101.80 L93.00,103.20 L94.00,104.80 L94.20,108.80 L94.80,109.20 L99.60,109.00 L100.20,108.40 L100.40,104.60 L99.60,102.60 Z M66.20,99.20 L63.20,98.20 L55.60,98.20 L52.40,99.20 L50.20,100.40 L47.80,102.40 L46.40,104.20 L45.00,108.00 L45.20,111.60 L46.20,113.20 L49.80,115.40 L55.40,116.80 L58.40,118.00 L59.80,119.20 L60.40,121.40 L60.00,123.40 L59.20,124.60 L56.60,127.00 L54.20,127.80 L51.20,127.80 L49.40,127.20 L47.60,125.40 L46.80,123.40 L47.00,120.20 L41.60,120.20 L41.20,120.80 L41.20,125.60 L42.20,127.60 L44.40,129.60 L48.00,130.80 L56.20,130.60 L59.40,129.60 L61.40,128.40 L64.60,125.40 L65.60,124.00 L66.60,121.20 L66.60,117.40 L65.60,115.60 L62.20,113.20 L53.00,110.40 L51.80,109.40 L51.00,107.00 L52.20,104.20 L54.60,102.00 L57.20,101.00 L59.60,101.00 L61.60,101.80 L63.00,103.20 L63.60,104.80 L63.60,107.20 L68.80,107.20 L69.40,106.40 L69.40,103.00 L68.60,101.40 Z M159.20,17.40 L151.00,17.20 L143.20,18.40 L134.40,21.20 L125.00,26.40 L119.60,30.20 L111.60,37.20 L86.80,62.00 L76.20,72.00 L68.40,77.80 L64.00,80.20 L60.80,81.40 L60.80,81.80 L126.40,81.80 L126.20,81.20 L123.20,79.20 L119.40,77.20 L113.20,75.20 L108.40,74.60 L102.20,74.60 L95.60,75.20 L90.20,76.20 L84.80,78.00 L83.00,78.00 L82.60,77.20 L97.60,70.80 L111.20,66.60 L112.80,66.60 L114.60,65.80 L117.20,65.60 L119.80,64.80 L127.40,63.80 L140.20,63.40 L141.20,62.00 L143.00,57.40 L151.80,43.00 L151.80,42.20 L147.80,42.20 L136.40,44.20 L122.20,49.20 L113.40,53.40 L100.20,61.20 L78.40,76.80 L71.60,80.00 L70.00,80.20 L69.60,79.40 L75.60,76.40 L83.20,70.80 L112.00,43.00 L121.80,34.60 L128.00,30.00 L137.80,23.80 L144.20,20.80 L152.80,18.20 L159.20,17.80 Z"/>
</svg>
